# xmcd CD database file generated by Grip 3.2.0
# 
# Track frame offsets:
#       183
#       10405
#       34523
#       54215
#       71935
#       93460
#       118403
#       138675
#       149798
#       175058
#       194845
#       209743
#       238815
#       251633
# 
# Disc length: 3644 seconds
# 
# Revision: 3
# Processed by: cddbd v1.5.1PL0 Copyright (c) Steve Scherf et al.
# Submitted via: Grip 3.2.0
# 
DISCID=e70e3a0e
DTITLE=Various Artist - No Tom Da Mangueira
DYEAR=1991
DGENRE=Samba
TTITLE0=Tom Jobim e Chico Buarque - Piano na Mangueira
TTITLE1=Gal Costa - Fala Mangueira - Mangueira
TTITLE2=Nei Matogrosso, Rafael Rabello e Clementina de Jesus - Nasceste de uma
TTITLE2=semente - Sementes do samba
TTITLE3=Zezé Gonzaga e Baden Powell - Folhas secas
TTITLE4=Tom Jobim, Carlos Cachaça, Cláudio Nucci, Cartola e As Meninas da Ma
TTITLE4=ngueira - Não quero mais amar a ninguém - Pranto de poeta - Fiz por 
TTITLE4=você o que pude
TTITLE5=Herivelto Martins, Alcione, Beth Carvalho, Marçal e Peri Ribeiro - Ma
TTITLE5=ngueira não - Saudosa Mangueira - Lá em Mangueira - Praça Onze
TTITLE6=Alaíde Costa - Quando o samba acabou
TTITLE7=Leci Brandão - A mais querida
TTITLE8=Joyce e Jonny Alf - Sabiá da Mangueira - Despedida de Mangueira
TTITLE9=Sandra de Sá - Os meninos da Mangueira
TTITLE10=Nelson Cavaquinho - Rei vagabundo - A Mangueira me chama - Sempre Mang
TTITLE10=ueira
TTITLE11=Chico Buarque, Caetano Veloso e Paulinho da Viola - Exaltação à Man
TTITLE11=gueira - Sei lá Mangueira - Mundo de zinco
TTITLE12=Maria Bethânia e Garganta Profunda - Primavera
TTITLE13=Benito di Paula, Ivan Lins e Elza Soares - Enquanto houver Mangueira -
TTITLE13=Onde estão os tamborins? - Levanta Mangueira!
EXTD=YEAR: 1991
EXTT0=Tom Jobim e Chico Buarque\n
EXTT1=Mangueira\nGal Costa\n
EXTT2=Sementes Do Samba\nNei Matogrosso/Rafael \nRabello/Clementina de Jesu
EXTT2=s\n
EXTT3=Zez  Gonzaga/Baden Powell\n
EXTT4=Pranto De Poeta\n-Fiz Por Voc  O Que Puder\nTom Jobin/Paulinho Da Vio
EXTT4=la, etc.\n
EXTT5=Saudosa Mangueira\n-L  Em Mangueira\n-Pra a Onze\nHerivelto Martins/A
EXTT5=lcione/Beth \nCarvalho/Mar al/Peri Ribeiro\n
EXTT6=Alaide Costa\n
EXTT7=Leci Brand o\n
EXTT8=Despedida De Mangueira\nJoyce/Johnny Alf\n
EXTT9=Sandra De S \n
EXTT10=A Mangueira Me Chama\n-Sempre Mangueira\nNelson Cavaquinho\n
EXTT11=Sei L  Mangueira\n-Mundo De Zinco\nChico Buarque/Caetano \nVeloso/Pau
EXTT11=linho Da Viola\n
EXTT12=Maria Beth nia and Garganta Profunda\n
EXTT13=Onde Est o Os Tamborins\n-Levanta Mangueira\nBenito Di Paula/Ivan Lin
EXTT13=s/Elsa Soares\n
PLAYORDER=
